<?xml version="1.0" standalone="no"?>
<!DOCTYPE svg PUBLIC "-//W3C//DTD SVG 1.1//EN" "http://www.w3.org/Graphics/SVG/1.1/DTD/svg11.dtd" >
<svg xmlns="http://www.w3.org/2000/svg" xmlns:xlink="http://www.w3.org/1999/xlink" version="1.1">
<metadata></metadata>
<defs>
<font id="data_controllatin" horiz-adv-x="1000" >
<font-face units-per-em="2048" ascent="1638" descent="-410" />
<missing-glyph horiz-adv-x="500" />
<glyph horiz-adv-x="0" />
<glyph unicode="&#xd;" />
<glyph unicode=" " />
<glyph unicode="!" d="M500 86v72q1 35 26 60.5t60 25.5h80q35 0 60.5 -25t25.5 -59v-74q0 -35 -24.5 -59.5t-59.5 -24.5h-84q-35 0 -59.5 24.5t-24.5 59.5zM502 1245q-2 34 23.5 59t60.5 25h84q35 0 60.5 -26.5t23.5 -59.5l-41 -651q-3 -36 -27 -60t-57 -24q-37 0 -60.5 25t-25.5 59z" />
<glyph unicode="&#x22;" d="M203 1253v78h848v-78l-84 -452q-15 -72 -86 -72q-70 0 -84 72l-72 360h-195l-73 -362q-17 -72 -84 -72q-73 0 -86 72z" />
<glyph unicode="#" d="M207 594q0 34 24.5 59t59.5 25h84v192h-84q-35 0 -59.5 24.5t-24.5 59.5q0 36 24.5 60t59.5 24h86v207q0 35 24.5 59.5t59.5 24.5q34 0 59 -25t25 -59v-207h168v207q0 35 25 59.5t59 24.5q35 0 60.5 -25t25.5 -59v-207h86q34 0 59 -24.5t25 -59.5q0 -36 -27 -61t-57 -25 h-84v-190h84q33 0 58.5 -25t25.5 -59q0 -33 -23.5 -58.5t-60.5 -25.5h-86v-207q0 -35 -25.5 -60.5t-60.5 -25.5q-34 0 -59 25.5t-25 60.5v207h-168v-207q0 -35 -24.5 -60.5t-59.5 -25.5t-59.5 25.5t-24.5 60.5v207h-86q-35 0 -59.5 24.5t-24.5 59.5zM545 678h168v190h-168 v-190z" />
<glyph unicode="$" d="M205 377q0 35 24.5 59.5t59.5 24.5h594v121h-592q-35 0 -59.5 24t-24.5 60v290q0 35 24.5 59.5t59.5 24.5h252v205q0 34 23.5 59t63.5 25q34 0 58.5 -24.5t24.5 -59.5v-205h258q35 0 60.5 -25t25.5 -59q0 -35 -25.5 -60.5t-60.5 -25.5h-594v-120h592q35 0 60.5 -25 t25.5 -59v-291q0 -34 -25.5 -59t-60.5 -25h-256v-205q0 -35 -25 -59.5t-59 -24.5q-36 0 -61 24.5t-25 59.5v207h-254q-34 0 -59 24.5t-25 59.5z" />
<glyph unicode="%" d="M203 1096v147q0 35 25 60.5t59 25.5h170q35 0 60.5 -25.5t25.5 -60.5v-145q0 -35 -25 -60.5t-59 -25.5h-174q-34 0 -58 25t-24 59zM205 228q0 32 22 61l680 868q21 25 58 25q35 0 60.5 -23t25.5 -59q0 -34 -23 -64l-680 -866q-21 -25 -55 -25q-33 0 -60.5 24.5 t-27.5 58.5zM711 84v147q0 36 24 60t60 24h170q35 0 59.5 -24t24.5 -60v-147q0 -35 -24.5 -59.5t-59.5 -24.5h-172q-35 0 -58.5 24t-23.5 60z" />
<glyph unicode="&#x26;" d="M209 258v117q0 41 33 69l153 131l-155 170q-31 34 -31 78v105q0 104 75 179t179 75h170q104 0 179 -75t75 -179v-113q0 -47 -43 -84l-201 -172l184 -194l86 71q29 25 64 25q34 0 57.5 -25t23.5 -59q0 -35 -26 -58l-88 -77l88 -99q24 -27 24 -61t-24.5 -58t-59.5 -24 t-59 25l-100 104l-129 -111q-12 -16 -47 -16h-174q-105 0 -179.5 75t-74.5 181zM379 254q0 -35 25 -59.5t59 -24.5h137l96 84l-182 197l-135 -115v-82zM379 846l149 -160l191 162v82q0 35 -24.5 60.5t-59.5 25.5h-172q-35 0 -59.5 -25.5t-24.5 -60.5v-84z" />
<glyph unicode="'" d="M463 672v563q0 40 23.5 67t64.5 27h166q35 0 60 -25.5t25 -59.5q0 -11 -3 -21l-168 -578q-20 -63 -82 -63q-37 0 -61.5 26t-24.5 64z" />
<glyph unicode="(" d="M461 485v359q0 106 76 203l202 258q21 26 56 26t61.5 -23t26.5 -64q0 -30 -15 -48l-200 -254q-39 -51 -39 -117v-323q0 -65 39 -115l200 -256q15 -17 15 -48q0 -40 -26 -63t-61 -23q-37 0 -57 26l-202 258q-76 94 -76 204z" />
<glyph unicode=")" d="M387 85q0 30 14 48l201 254q41 50 41 115v325q0 63 -41 115l-201 254q-14 19 -14 47q0 39 26.5 63.5t60.5 24.5q35 0 56 -26l205 -258q74 -93 74 -203v-359q0 -112 -74 -204l-205 -258q-21 -26 -57 -26q-34 0 -60 24t-26 64z" />
<glyph unicode="*" d="M231 377q0 36 25 57l271 230l-269 231q-26 23 -26 60q0 34 25 59.5t59 25.5t61 -24l191 -166v248q0 34 25.5 59t60.5 25q34 0 59 -25t25 -59v-252l196 168q28 23 64 23t59 -25.5t23 -58.5q0 -36 -25 -58l-270 -231l268 -230q25 -22 25 -57t-24 -60t-59 -25q-33 0 -61 23 l-196 168v-252q0 -34 -25 -59t-59 -25q-36 0 -61 25t-25 59v248l-193 -166q-27 -22 -60 -22q-35 0 -59.5 25.5t-24.5 60.5z" />
<glyph unicode="+" d="M203 668q0 34 25 59t59 25h258v258q0 34 25 58t61 24q34 0 58 -24t24 -58v-258h258q35 0 60.5 -24.5t25.5 -59.5t-25.5 -59.5t-60.5 -24.5h-256v-258q0 -36 -25.5 -61t-60.5 -25t-59.5 25t-24.5 61v258h-258q-34 0 -59 24.5t-25 59.5z" />
<glyph unicode="," d="M375 524q0 34 25 59t59 25h340q35 0 59.5 -25t24.5 -61v-436q0 -35 -24.5 -59.5t-59.5 -24.5t-59.5 24.5t-24.5 59.5v352h-256q-35 0 -59.5 25.5t-24.5 60.5z" />
<glyph unicode="-" d="M207 596v74q0 35 24.5 59.5t59.5 24.5h678q32 0 58 -23.5t26 -60.5v-74q0 -35 -24.5 -60.5t-59.5 -25.5h-678q-35 0 -59.5 25.5t-24.5 60.5z" />
<glyph unicode="." d="M457 301v145q0 35 25 59.5t61 24.5h170q34 0 59 -24.5t25 -59.5v-143q0 -35 -24.5 -60.5t-59.5 -25.5h-172q-35 0 -59.5 25t-24.5 59z" />
<glyph unicode="/" d="M227 79q0 31 20 66l682 1158q17 27 53 27q32 0 60.5 -21.5t28.5 -56.5q0 -33 -21 -68l-682 -1159q-16 -26 -51 -26q-33 0 -61.5 22.5t-28.5 57.5z" />
<glyph unicode="0" d="M203 164v1005q0 66 48 114t114 48h524q65 0 112.5 -48t47.5 -114v-1005q0 -67 -47.5 -114.5t-114.5 -47.5h-522q-68 0 -115 47.5t-47 114.5zM371 170h512v991h-512v-991z" />
<glyph unicode="1" d="M201 88q0 34 24.5 58t59.5 24h258v991h-254q-35 0 -59.5 24.5t-24.5 59.5t24.5 59.5t59.5 24.5h422v-1159h168v350q0 34 24.5 59t59.5 25t59.5 -24.5t24.5 -59.5v-434q0 -35 -24.5 -59.5t-59.5 -24.5h-678q-35 0 -59.5 25.5t-24.5 60.5z" />
<glyph unicode="2" d="M199 1245q0 35 24 59.5t60 24.5h600q70 0 120 -49.5t50 -118.5v-409q0 -71 -50 -120.5t-120 -49.5h-510v-412h596q34 0 59 -24.5t25 -59.5t-25 -59.5t-59 -24.5h-764v580q0 70 49.5 120t118.5 50h510v409h-600q-36 0 -60 24.5t-24 59.5z" />
<glyph unicode="3" d="M201 1245q0 35 24.5 59.5t59.5 24.5h600q70 0 119 -49.5t49 -118.5v-315q0 -110 -68 -178q70 -78 70 -170v-328q0 -69 -50 -118.5t-120 -49.5h-594q-35 0 -59.5 24.5t-24.5 59.5t24.5 59.5t59.5 24.5h592v328q0 35 -24.5 60.5t-59.5 25.5h-338q-35 0 -59.5 24t-24.5 60 q0 35 24.5 59.5t59.5 24.5h340q34 0 59 24.5t25 59.5v325h-600q-35 0 -59.5 24.5t-24.5 59.5z" />
<glyph unicode="4" d="M250 436v809q0 35 25.5 60.5t60.5 25.5q34 0 59 -25.5t25 -60.5v-639h336v492q0 35 24.5 60.5t59.5 25.5t59.5 -25.5t24.5 -60.5v-492q35 0 59.5 -24.5t24.5 -59.5t-24.5 -59.5t-59.5 -24.5v-352q0 -35 -25 -59.5t-59 -24.5q-35 0 -59.5 24.5t-24.5 59.5v350h-506z" />
<glyph unicode="5" d="M225 160q0 35 23 59.5t56 24.5q25 0 58 -15l111 -47q20 -12 41 -12h389v412h-508v747h592q34 0 59 -25t25 -59q0 -35 -24.5 -59.5t-59.5 -24.5h-422v-411h338q68 0 118 -50t50 -118v-412q0 -69 -49.5 -118.5t-118.5 -49.5h-389q-52 0 -111 25l-127 53q-51 21 -51 80z" />
<glyph unicode="6" d="M207 86v1159q0 35 25 59.5t61 24.5h84q35 0 59.5 -25t24.5 -59q0 -35 -24.5 -59.5t-59.5 -24.5v-555h592q34 0 59 -25.5t25 -60.5v-434q0 -35 -25.5 -59.5t-60.5 -24.5h-674q-35 0 -60.5 25t-25.5 59zM375 170h508v266h-508v-266z" />
<glyph unicode="7" d="M203 1171v72q0 35 24.5 59.5t59.5 24.5h762v-516q0 -41 -31 -68l-309 -264v-391q0 -35 -24.5 -60.5t-59.5 -25.5t-60.5 25t-25.5 59v424q0 48 30 74l310 262v313h-508q-18 -72 -84 -72q-35 0 -59.5 24.5t-24.5 59.5z" />
<glyph unicode="8" d="M201 172v410q0 69 50 118.5t120 49.5v495q0 35 24 59.5t60 24.5h342q35 0 59.5 -24.5t24.5 -59.5v-495q68 0 118 -48.5t50 -119.5v-412q0 -69 -50 -118.5t-118 -49.5h-510q-71 0 -120.5 52t-49.5 118zM371 170h510v412h-510v-412zM539 750h174v411h-174v-411z" />
<glyph unicode="9" d="M209 811v436q0 34 25 59t59 25h676q34 0 59 -25t25 -59v-1159q0 -35 -24.5 -59.5t-59.5 -24.5h-84q-34 0 -59 24.5t-25 59.5t24.5 59.5t59.5 24.5v555h-592q-34 0 -59 25t-25 59zM377 897h510v264h-510v-264z" />
<glyph unicode=":" d="M461 301v145q0 36 24.5 60t59.5 24h168q35 0 60.5 -24.5t25.5 -59.5v-143q0 -35 -25 -60.5t-59 -25.5h-172q-35 0 -58.5 25t-23.5 59zM461 881v145q0 34 24.5 59t59.5 25h168q36 0 61 -27t25 -57v-145q0 -34 -25.5 -59t-58.5 -25h-172q-35 0 -58.5 24t-23.5 60z" />
<glyph unicode=";" d="M369 524q0 34 24.5 59t59.5 25h340q33 0 58.5 -25.5t25.5 -60.5v-436q0 -35 -25 -59.5t-59 -24.5q-36 0 -61 24.5t-25 59.5v352h-256q-34 0 -58 25.5t-24 60.5zM373 958v144q0 34 25 59t59 25h170q35 0 59.5 -24.5t24.5 -59.5v-144q0 -35 -24.5 -59.5t-59.5 -24.5h-170 q-35 0 -59.5 24.5t-24.5 59.5z" />
<glyph unicode="&#x3c;" d="M207 633v65q0 50 51 80l662 391q27 18 54 18q32 0 57.5 -25t25.5 -61q0 -47 -37 -69l-619 -366l619 -365q37 -24 37 -71q0 -36 -25.5 -61t-57.5 -25q-25 0 -54 18l-662 391q-51 28 -51 80z" />
<glyph unicode="=" d="M203 522q0 35 25 59.5t59 24.5h680q34 0 59 -25t25 -59q0 -35 -24.5 -60.5t-59.5 -25.5h-680q-34 0 -59 25.5t-25 60.5zM203 883q0 34 25 59t59 25h680q35 0 59.5 -24.5t24.5 -59.5t-24.5 -59.5t-59.5 -24.5h-680q-34 0 -59 25t-25 59z" />
<glyph unicode="&#x3e;" d="M229 229q0 48 38 70l618 367l-618 364q-38 24 -38 72q0 37 25.5 61t57.5 24q25 0 55 -18l662 -391q49 -29 49 -80v-65q0 -51 -49 -80l-662 -391q-29 -18 -55 -18q-32 0 -57.5 24t-25.5 61z" />
<glyph unicode="?" d="M229 810q0 41 22 60l516 439q23 19 56 19q31 0 51 -17l172 -150q29 -22 29 -63v-144q0 -38 -23 -57l-485 -418v-104q0 -34 -25 -59t-59 -25q-35 0 -59.5 25t-24.5 59v139q0 45 26 68l480 413v62l-84 76l-447 -383q-30 -26 -62 -26q-31 0 -57 24t-26 62zM397 86 q0 35 24.5 60.5t59.5 25.5t59.5 -25.5t24.5 -60.5t-24.5 -59.5t-59.5 -24.5t-59.5 24.5t-24.5 59.5z" />
<glyph unicode="@" d="M207 1096q0 64 81.5 148.5t192.5 84.5h287q111 0 198 -87.5t87 -207.5v-790q0 -94 -74 -168t-174 -74q-105 0 -172 66q-66 -66 -170 -66q-107 0 -180.5 75t-73.5 167v323q0 104 74.5 179t179.5 75h164q90 0 90 -90v-477q0 -35 24.5 -59.5t59.5 -24.5q34 0 59 24.5 t25 59.5v786q0 46 -37 83.5t-84 37.5h-258q-57 0 -83 -21t-53.5 -72.5t-76.5 -51.5q-39 0 -62.5 24t-23.5 56zM379 254q0 -35 25 -59.5t59 -24.5q35 0 60.5 24.5t25.5 59.5v399h-76q-94 0 -94 -94v-305z" />
<glyph unicode="A" d="M207 86q0 15 5 31l340 1149q20 63 84 63q62 0 78 -53l335 -1167q4 -13 4 -25q0 -35 -24 -59.5t-55 -24.5q-66 0 -84 61l-68 228h-383l-74 -244q-3 -16 -25 -30.5t-48 -14.5q-37 0 -61 25t-24 61zM490 459h283l-139 481z" />
<glyph unicode="B" d="M203 0v1329h514q139 0 237.5 -99t98.5 -239v-71q0 -149 -115 -254q115 -107 115 -254v-74q0 -139 -98.5 -238.5t-237.5 -99.5h-514zM371 754h342q68 0 118 49.5t50 118.5v69q0 70 -49.5 120t-118.5 50h-342v-407zM373 170h340q68 0 118 49.5t50 118.5v70q0 70 -49.5 120 t-118.5 50h-340v-408z" />
<glyph unicode="C" d="M211 664q0 94 37 163l196 371q28 52 87 91.5t114 39.5h332q35 0 59.5 -25t24.5 -59q0 -35 -24.5 -60.5t-59.5 -25.5h-320q-40 0 -65 -47l-186 -348q-22 -41 -22 -97q0 -59 24 -104l178 -342q25 -53 82 -53h303q35 0 60.5 -24.5t25.5 -59.5t-25.5 -59.5t-60.5 -24.5h-314 q-60 0 -124 38t-89 85l-194 375q-39 81 -39 166zM889 86v143q0 35 24 59.5t59 24.5q36 0 60 -24.5t24 -59.5v-143q0 -35 -24 -59.5t-60 -24.5q-35 0 -59 24.5t-24 59.5zM893 1100v143q0 35 24 59.5t59 24.5q36 0 60 -24.5t24 -59.5v-143q0 -35 -24 -59.5t-60 -24.5 q-35 0 -59 24.5t-24 59.5z" />
<glyph unicode="D" d="M203 84q0 35 24.5 60.5t59.5 25.5h88v989h-86q-35 0 -59.5 25.5t-24.5 60.5q0 34 24.5 59t59.5 25h332q65 -1 126.5 -42t90.5 -99l166 -336q47 -91 47 -190q0 -92 -50 -189l-167 -332q-32 -64 -92 -102.5t-134 -38.5h-321q-35 0 -59.5 25t-24.5 59zM543 168h59 q56 0 84 55l166 330q31 65 31 109q0 55 -25 104l-172 342q-27 51 -88 51h-55v-991z" />
<glyph unicode="E" d="M207 0v1329h762q35 0 60.5 -25.5t25.5 -60.5q0 -34 -25.5 -59t-60.5 -25h-594v-409h256q34 0 59 -25t25 -59q0 -36 -24.5 -61t-59.5 -25h-256v-412h596q34 0 59 -24.5t25 -59.5t-25.5 -59.5t-60.5 -24.5h-762zM887 86v143q0 35 24 59.5t59 24.5q36 0 60 -24.5t24 -59.5 v-143q0 -35 -24 -59.5t-60 -24.5q-35 0 -59 24.5t-24 59.5zM887 1100v143q0 35 24 59.5t59 24.5q36 0 60 -24.5t24 -59.5v-143q0 -35 -24 -59.5t-60 -24.5q-35 0 -59 24.5t-24 59.5z" />
<glyph unicode="F" d="M206 84v143q0 35 24 59.5t59 24.5q36 0 60 -24.5t24 -59.5v-143q0 -35 -24 -59.5t-60 -24.5q-35 0 -59 24.5t-24 59.5zM207 158v1171h762q35 0 60.5 -25.5t25.5 -60.5q0 -34 -25.5 -59t-60.5 -25h-594v-409h256q34 0 59 -25t25 -59q0 -36 -24.5 -61t-59.5 -25h-256v-412z M887 1100v143q0 35 24 59.5t59 24.5q36 0 60 -24.5t24 -59.5v-143q0 -35 -24 -59.5t-60 -24.5q-35 0 -59 24.5t-24 59.5z" />
<glyph unicode="G" d="M203 252v465q0 125 67 211l248 315q27 36 75.5 61t100.5 25h279q35 0 59.5 -24.5t24.5 -59.5q0 -37 -26.5 -61.5t-57.5 -24.5h-266q-39 0 -68 -37l-236 -303q-30 -36 -30 -100v-465q0 -36 24.5 -61t59.5 -25h342q34 0 59 25t25 59v292h-174q-36 0 -60 24.5t-24 59.5 t24 59.5t60 24.5h342v-460q0 -104 -74 -178t-178 -74h-342q-105 0 -179.5 74t-74.5 178zM893 1100v143q0 35 24 59.5t59 24.5q36 0 60 -24.5t24 -59.5v-143q0 -35 -24 -59.5t-60 -24.5q-35 0 -59 24.5t-24 59.5z" />
<glyph unicode="H" d="M203 84v1161q0 34 24.5 59t59.5 25q34 0 59 -25t25 -59v-495h512v495q0 34 24.5 59t59.5 25t59.5 -25t24.5 -61v-1159q0 -34 -25.5 -59t-58.5 -25q-36 0 -60 24.5t-24 59.5v498h-510v-498q0 -34 -25.5 -59t-60.5 -25q-34 0 -59 24.5t-25 59.5z" />
<glyph unicode="I" d="M205 84q0 35 24.5 59.5t59.5 24.5h258v991h-258q-35 0 -59.5 25t-24.5 59q0 36 24.5 61t59.5 25h680q33 0 58.5 -25t25.5 -59q0 -35 -25 -60.5t-59 -25.5h-254v-991h254q35 0 59.5 -24.5t24.5 -59.5t-25 -59.5t-59 -24.5h-680q-35 0 -59.5 24.5t-24.5 59.5z" />
<glyph unicode="J" d="M207 254v266q0 35 24.5 59.5t59.5 24.5t59.5 -24.5t24.5 -59.5v-268q0 -34 25 -58t61 -24h337q35 0 60.5 24.5t25.5 59.5v991q0 35 24 59.5t58 24.5t60 -27t26 -61v-987q0 -106 -77 -180t-177 -74h-337q-105 0 -179.5 75t-74.5 179zM501 1243q0 34 25 59t59 25h379 q35 0 60.5 -24.5t25.5 -59.5t-25.5 -59.5t-60.5 -24.5h-379q-34 0 -59 24.5t-25 59.5z" />
<glyph unicode="K" d="M205 84v1159q0 36 24.5 61t59.5 25t59.5 -24.5t24.5 -59.5v-397l538 459q28 23 63 23t59 -26t24 -60q0 -35 -27 -58l-610 -518l610 -527q25 -21 25 -54t-24.5 -60t-60.5 -27q-34 0 -61 23l-536 462v-401q0 -35 -24.5 -59.5t-59.5 -24.5q-34 0 -59 24.5t-25 59.5z" />
<glyph unicode="L" d="M207 0v1245q0 34 25 59t59 25t59 -25t25 -59v-1077h594q35 0 60.5 -24.5t25.5 -59.5t-25.5 -59.5t-60.5 -24.5h-762zM895 86v143q0 35 24 59.5t59 24.5q36 0 60 -24.5t24 -59.5v-143q0 -35 -24 -59.5t-60 -24.5q-35 0 -59 24.5t-24 59.5z" />
<glyph unicode="M" d="M203 84v1245h217l205 -470l215 470h213v-1245q0 -35 -25.5 -59.5t-60.5 -24.5q-34 0 -59 25t-25 59v925q-172 -321 -197 -346t-59 -25q-35 0 -59.5 25t-196.5 350v-929q0 -35 -24.5 -59.5t-59.5 -24.5t-59.5 25t-24.5 59z" />
<glyph unicode="N" d="M207 84v1245h223l453 -1030v944q0 35 25.5 60.5t60.5 25.5t59.5 -25t24.5 -61v-1243h-226l-452 1032v-948q0 -35 -24.5 -59.5t-59.5 -24.5t-59.5 24.5t-24.5 59.5z" />
<glyph unicode="O" d="M205 662q0 93 37 167l186 377q63 123 201 123q140 0 200 -123l185 -377q39 -77 39 -167q0 -88 -39 -166l-185 -373q-59 -123 -200 -123q-67 0 -120.5 35t-80.5 88l-186 373q-37 73 -37 166zM375 664q0 -55 24 -105l179 -358q14 -33 51 -33q32 0 49 33l180 358 q25 53 25 105q0 55 -25 104l-176 354q-17 39 -53 39t-56 -39l-174 -354q-24 -53 -24 -104z" />
<glyph unicode="P" d="M207 84v1245h596q103 0 177.5 -75t74.5 -179v-315q0 -104 -74 -178t-178 -74h-426v-424q0 -35 -24.5 -59.5t-59.5 -24.5q-36 0 -61 24.5t-25 59.5zM377 676h426q34 0 59 24.5t25 59.5v315q0 35 -25 59.5t-59 24.5h-426v-483z" />
<glyph unicode="Q" d="M205 207v469q0 88 27 151.5t108 133.5l358 309q72 59 148 59q84 0 145.5 -61t61.5 -131v-514q0 -146 -125 -252l-113 -97l43 -106h113q35 0 59.5 -24.5t24.5 -59.5t-24.5 -59.5t-59.5 -24.5h-230l-61 158l-115 -95q-76 -63 -153 -63q-88 0 -147.5 60.5t-59.5 146.5z M373 217q0 -52 40 -52q16 0 31 13l170 146l-55 147q-12 29 -12 50q0 31 25 55.5t59 24.5q59 0 78 -48l43 -113q73 57 102 94.5t29 88.5v495q0 42 -38 42q-21 0 -36 -13l-358 -309q-47 -41 -62.5 -78t-15.5 -105v-438z" />
<glyph unicode="R" d="M209 84v1245h594q103 0 177.5 -75t74.5 -179v-96q0 -105 -74 -179.5t-178 -74.5h-107l344 -590q16 -26 16 -52q0 -34 -26 -58.5t-59 -24.5q-50 0 -76 45l-395 680h-121v-641q0 -35 -25.5 -59.5t-60.5 -24.5t-59.5 24.5t-24.5 59.5zM377 893h426q35 0 59.5 24.5t24.5 59.5 v98q0 35 -24.5 59.5t-59.5 24.5h-426v-266z" />
<glyph unicode="S" d="M205 219q0 94 88 94q34 0 58 -24.5t24 -57.5q0 -27 18.5 -45t46.5 -18h418q27 0 29 36v155l-643 478q-38 49 -38 86q0 6 1 11l-1 202q0 78 56 135.5t135 57.5h437q80 0 151.5 -67.5t71.5 -163.5q0 -36 -25.5 -61t-56.5 -25q-43 0 -59 19.5t-30.5 72.5t-64.5 53h-415 q-30 0 -30 -19v-187l642 -484q40 -26 40 -71v-10l-1 -197q0 -75 -54.5 -132t-121.5 -57h-453q-90 0 -156.5 68.5t-66.5 150.5z" />
<glyph unicode="T" d="M205 1100v227h848v-229q0 -35 -25 -59.5t-59 -24.5q-35 0 -60.5 25t-25.5 59v61h-170v-1075q0 -35 -25 -59.5t-59 -24.5q-36 0 -61 24.5t-25 59.5v1075h-170v-59q0 -35 -24.5 -59.5t-59.5 -24.5t-59.5 24.5t-24.5 59.5z" />
<glyph unicode="U" d="M205 302v941q0 35 25 60.5t59 25.5t59 -25t25 -59v-943q0 -33 46 -82.5t80 -49.5h250q35 0 85.5 49t50.5 83v941q0 36 24.5 61t59.5 25t59.5 -25t24.5 -61v-939q0 -104 -74.5 -204t-229.5 -100h-250q-146 0 -220 99t-74 203z" />
<glyph unicode="V" d="M209 934v309q0 36 24.5 61t59.5 25t59.5 -25t24.5 -61v-274l256 -652l256 650v276q0 36 24.5 61t59.5 25t59.5 -25t24.5 -61v-309l-342 -871q-26 -63 -82 -63q-59 0 -84 63z" />
<glyph unicode="W" d="M203 1245q0 34 24.5 59t59.5 25t59.5 -24.5t24.5 -59.5l44 -958q130 820 154.5 845t59.5 25q34 0 59 -25t141 -853l54 966q0 34 25 59t59 25q35 0 60.5 -24.5t25.5 -59.5l-104 -1176q0 -69 -63 -69h-78q-46 0 -63 50l-118 650l-128 -650q-20 -50 -63 -50h-93 q-60 0 -60 67z" />
<glyph unicode="X" d="M219 84q0 24 15 49l313 531l-307 528q-18 31 -18 57q0 32 25 56.5t58 24.5q49 0 72 -40l271 -456l266 454q25 41 71 41q35 0 61 -24t26 -58q0 -23 -13 -45l-315 -536l313 -539q12 -20 12 -43q0 -36 -24.5 -60t-59.5 -24q-49 0 -73 41l-268 457l-267 -457q-23 -40 -71 -40 q-36 0 -61.5 26t-25.5 57z" />
<glyph unicode="Y" d="M209 1065v178q0 36 24.5 61t59.5 25t60.5 -25.5t25.5 -60.5v-115l252 -325l256 323v117q0 35 25 60.5t59 25.5q33 0 58.5 -23.5t25.5 -62.5v-176l-338 -430v-553q0 -35 -25 -59.5t-59 -24.5q-36 0 -61 24.5t-25 59.5v553z" />
<glyph unicode="Z" d="M205 0v111l616 1048h-534q-34 0 -58 25.5t-24 60.5q0 34 24 59t58 25h766v-108l-617 -1053h533q35 0 59.5 -24.5t24.5 -59.5q0 -34 -25 -59t-59 -25h-764zM208 1100v143q0 35 24 59.5t60 24.5q35 0 59 -24.5t24 -59.5v-143q0 -35 -24 -59.5t-59 -24.5q-36 0 -60 24.5 t-24 59.5zM885 86v143q0 35 24 59.5t60 24.5q35 0 59 -24.5t24 -59.5v-143q0 -35 -24 -59.5t-59 -24.5q-36 0 -60 24.5t-24 59.5z" />
<glyph unicode="[" d="M207 86v1159q0 36 24.5 61t59.5 25h678q34 0 59 -25t25 -59q0 -35 -24.5 -60.5t-59.5 -25.5h-338v-991h338q35 0 59.5 -24.5t24.5 -59.5t-24.5 -59.5t-59.5 -24.5h-678q-34 0 -59 25t-25 59zM375 170h88v991h-88v-991z" />
<glyph unicode="\" d="M229 1252q0 35 28 56.5t61 21.5q37 0 53 -27l680 -1158q22 -36 22 -66q0 -35 -28 -57.5t-61 -22.5q-36 0 -52 26l-682 1159q-21 38 -21 68z" />
<glyph unicode="]" d="M205 1245q0 34 25.5 59t60.5 25h676q35 0 60.5 -24.5t25.5 -59.5v-1159q0 -35 -25 -59.5t-59 -24.5h-678q-35 0 -59.5 25.5t-24.5 60.5q0 34 24.5 58t59.5 24h336v991h-336q-36 0 -61 24.5t-25 59.5zM797 170h88v991h-88v-991z" />
<glyph unicode="^" d="M223 299q0 27 16 57l332 635q26 49 76 49t76 -49l331 -635q17 -30 17 -56q0 -31 -24.5 -55.5t-58.5 -24.5q-46 0 -71 36l-270 403l-269 -403q-26 -36 -72 -36q-34 0 -58.5 24t-24.5 55z" />
<glyph unicode="_" d="M-10 -86h1257v-170h-1257v170z" />
<glyph unicode="`" d="M391 1243q0 33 23 59.5t59 26.5q19 0 37 -8l305 -141q47 -24 47 -76q0 -33 -23 -59.5t-59 -26.5q-19 0 -37 8l-305 141q-47 24 -47 76z" />
<glyph unicode="a" d="M207 86q0 15 5 31l340 1149q20 63 84 63q62 0 78 -53l335 -1167q4 -13 4 -25q0 -35 -24 -59.5t-55 -24.5q-66 0 -84 61l-68 228h-383l-74 -244q-3 -16 -25 -30.5t-48 -14.5q-37 0 -61 25t-24 61zM490 459h283l-139 481z" />
<glyph unicode="b" d="M203 0v1329h514q139 0 237.5 -99t98.5 -239v-71q0 -149 -115 -254q115 -107 115 -254v-74q0 -139 -98.5 -238.5t-237.5 -99.5h-514zM371 754h342q68 0 118 49.5t50 118.5v69q0 70 -49.5 120t-118.5 50h-342v-407zM373 170h340q68 0 118 49.5t50 118.5v70q0 70 -49.5 120 t-118.5 50h-340v-408z" />
<glyph unicode="c" d="M211 664q0 94 37 163l196 371q28 52 87 91.5t114 39.5h332q35 0 59.5 -25t24.5 -59q0 -35 -24.5 -60.5t-59.5 -25.5h-320q-40 0 -65 -47l-186 -348q-22 -41 -22 -97q0 -59 24 -104l178 -342q25 -53 82 -53h303q35 0 60.5 -24.5t25.5 -59.5t-25.5 -59.5t-60.5 -24.5h-314 q-60 0 -124 38t-89 85l-194 375q-39 81 -39 166zM889 86v143q0 35 24 59.5t59 24.5q36 0 60 -24.5t24 -59.5v-143q0 -35 -24 -59.5t-60 -24.5q-35 0 -59 24.5t-24 59.5zM893 1100v143q0 35 24 59.5t59 24.5q36 0 60 -24.5t24 -59.5v-143q0 -35 -24 -59.5t-60 -24.5 q-35 0 -59 24.5t-24 59.5z" />
<glyph unicode="d" d="M203 84q0 35 24.5 60.5t59.5 25.5h88v989h-86q-35 0 -59.5 25.5t-24.5 60.5q0 34 24.5 59t59.5 25h332q65 -1 126.5 -42t90.5 -99l166 -336q47 -91 47 -190q0 -92 -50 -189l-167 -332q-32 -64 -92 -102.5t-134 -38.5h-321q-35 0 -59.5 25t-24.5 59zM543 168h59 q56 0 84 55l166 330q31 65 31 109q0 55 -25 104l-172 342q-27 51 -88 51h-55v-991z" />
<glyph unicode="e" d="M207 0v1329h762q35 0 60.5 -25.5t25.5 -60.5q0 -34 -25.5 -59t-60.5 -25h-594v-409h256q34 0 59 -25t25 -59q0 -36 -24.5 -61t-59.5 -25h-256v-412h596q34 0 59 -24.5t25 -59.5t-25.5 -59.5t-60.5 -24.5h-762zM887 86v143q0 35 24 59.5t59 24.5q36 0 60 -24.5t24 -59.5 v-143q0 -35 -24 -59.5t-60 -24.5q-35 0 -59 24.5t-24 59.5zM887 1100v143q0 35 24 59.5t59 24.5q36 0 60 -24.5t24 -59.5v-143q0 -35 -24 -59.5t-60 -24.5q-35 0 -59 24.5t-24 59.5z" />
<glyph unicode="f" d="M206 84v143q0 35 24 59.5t59 24.5q36 0 60 -24.5t24 -59.5v-143q0 -35 -24 -59.5t-60 -24.5q-35 0 -59 24.5t-24 59.5zM207 158v1171h762q35 0 60.5 -25.5t25.5 -60.5q0 -34 -25.5 -59t-60.5 -25h-594v-409h256q34 0 59 -25t25 -59q0 -36 -24.5 -61t-59.5 -25h-256v-412z M887 1100v143q0 35 24 59.5t59 24.5q36 0 60 -24.5t24 -59.5v-143q0 -35 -24 -59.5t-60 -24.5q-35 0 -59 24.5t-24 59.5z" />
<glyph unicode="g" d="M203 252v465q0 125 67 211l248 315q27 36 75.5 61t100.5 25h279q35 0 59.5 -24.5t24.5 -59.5q0 -37 -26.5 -61.5t-57.5 -24.5h-266q-39 0 -68 -37l-236 -303q-30 -36 -30 -100v-465q0 -36 24.5 -61t59.5 -25h342q34 0 59 25t25 59v292h-174q-36 0 -60 24.5t-24 59.5 t24 59.5t60 24.5h342v-460q0 -104 -74 -178t-178 -74h-342q-105 0 -179.5 74t-74.5 178zM893 1100v143q0 35 24 59.5t59 24.5q36 0 60 -24.5t24 -59.5v-143q0 -35 -24 -59.5t-60 -24.5q-35 0 -59 24.5t-24 59.5z" />
<glyph unicode="h" d="M203 84v1161q0 34 24.5 59t59.5 25q34 0 59 -25t25 -59v-495h512v495q0 34 24.5 59t59.5 25t59.5 -25t24.5 -61v-1159q0 -34 -25.5 -59t-58.5 -25q-36 0 -60 24.5t-24 59.5v498h-510v-498q0 -34 -25.5 -59t-60.5 -25q-34 0 -59 24.5t-25 59.5z" />
<glyph unicode="i" d="M205 84q0 35 24.5 59.5t59.5 24.5h258v991h-258q-35 0 -59.5 25t-24.5 59q0 36 24.5 61t59.5 25h680q33 0 58.5 -25t25.5 -59q0 -35 -25 -60.5t-59 -25.5h-254v-991h254q35 0 59.5 -24.5t24.5 -59.5t-25 -59.5t-59 -24.5h-680q-35 0 -59.5 24.5t-24.5 59.5z" />
<glyph unicode="j" d="M207 254v266q0 35 24.5 59.5t59.5 24.5t59.5 -24.5t24.5 -59.5v-268q0 -34 25 -58t61 -24h337q35 0 60.5 24.5t25.5 59.5v991q0 35 24 59.5t58 24.5t60 -27t26 -61v-987q0 -106 -77 -180t-177 -74h-337q-105 0 -179.5 75t-74.5 179zM501 1243q0 34 25 59t59 25h379 q35 0 60.5 -24.5t25.5 -59.5t-25.5 -59.5t-60.5 -24.5h-379q-34 0 -59 24.5t-25 59.5z" />
<glyph unicode="k" d="M205 84v1159q0 36 24.5 61t59.5 25t59.5 -24.5t24.5 -59.5v-397l538 459q28 23 63 23t59 -26t24 -60q0 -35 -27 -58l-610 -518l610 -527q25 -21 25 -54t-24.5 -60t-60.5 -27q-34 0 -61 23l-536 462v-401q0 -35 -24.5 -59.5t-59.5 -24.5q-34 0 -59 24.5t-25 59.5z" />
<glyph unicode="l" d="M207 0v1245q0 34 25 59t59 25t59 -25t25 -59v-1077h594q35 0 60.5 -24.5t25.5 -59.5t-25.5 -59.5t-60.5 -24.5h-762zM895 86v143q0 35 24 59.5t59 24.5q36 0 60 -24.5t24 -59.5v-143q0 -35 -24 -59.5t-60 -24.5q-35 0 -59 24.5t-24 59.5z" />
<glyph unicode="m" d="M203 84v1245h217l205 -470l215 470h213v-1245q0 -35 -25.5 -59.5t-60.5 -24.5q-34 0 -59 25t-25 59v925q-172 -321 -197 -346t-59 -25q-35 0 -59.5 25t-196.5 350v-929q0 -35 -24.5 -59.5t-59.5 -24.5t-59.5 25t-24.5 59z" />
<glyph unicode="n" d="M207 84v1245h223l453 -1030v944q0 35 25.5 60.5t60.5 25.5t59.5 -25t24.5 -61v-1243h-226l-452 1032v-948q0 -35 -24.5 -59.5t-59.5 -24.5t-59.5 24.5t-24.5 59.5z" />
<glyph unicode="o" d="M205 662q0 93 37 167l186 377q63 123 201 123q140 0 200 -123l185 -377q39 -77 39 -167q0 -88 -39 -166l-185 -373q-59 -123 -200 -123q-67 0 -120.5 35t-80.5 88l-186 373q-37 73 -37 166zM375 664q0 -55 24 -105l179 -358q14 -33 51 -33q32 0 49 33l180 358 q25 53 25 105q0 55 -25 104l-176 354q-17 39 -53 39t-56 -39l-174 -354q-24 -53 -24 -104z" />
<glyph unicode="p" d="M207 84v1245h596q103 0 177.5 -75t74.5 -179v-315q0 -104 -74 -178t-178 -74h-426v-424q0 -35 -24.5 -59.5t-59.5 -24.5q-36 0 -61 24.5t-25 59.5zM377 676h426q34 0 59 24.5t25 59.5v315q0 35 -25 59.5t-59 24.5h-426v-483z" />
<glyph unicode="q" d="M205 207v469q0 88 27 151.5t108 133.5l358 309q72 59 148 59q84 0 145.5 -61t61.5 -131v-514q0 -146 -125 -252l-113 -97l43 -106h113q35 0 59.5 -24.5t24.5 -59.5t-24.5 -59.5t-59.5 -24.5h-230l-61 158l-115 -95q-76 -63 -153 -63q-88 0 -147.5 60.5t-59.5 146.5z M373 217q0 -52 40 -52q16 0 31 13l170 146l-55 147q-12 29 -12 50q0 31 25 55.5t59 24.5q59 0 78 -48l43 -113q73 57 102 94.5t29 88.5v495q0 42 -38 42q-21 0 -36 -13l-358 -309q-47 -41 -62.5 -78t-15.5 -105v-438z" />
<glyph unicode="r" d="M209 84v1245h594q103 0 177.5 -75t74.5 -179v-96q0 -105 -74 -179.5t-178 -74.5h-107l344 -590q16 -26 16 -52q0 -34 -26 -58.5t-59 -24.5q-50 0 -76 45l-395 680h-121v-641q0 -35 -25.5 -59.5t-60.5 -24.5t-59.5 24.5t-24.5 59.5zM377 893h426q35 0 59.5 24.5t24.5 59.5 v98q0 35 -24.5 59.5t-59.5 24.5h-426v-266z" />
<glyph unicode="s" d="M205 219q0 94 88 94q34 0 58 -24.5t24 -57.5q0 -27 18.5 -45t46.5 -18h418q27 0 29 36v155l-643 478q-38 49 -38 86q0 6 1 11l-1 202q0 78 56 135.5t135 57.5h437q80 0 151.5 -67.5t71.5 -163.5q0 -36 -25.5 -61t-56.5 -25q-43 0 -59 19.5t-30.5 72.5t-64.5 53h-415 q-30 0 -30 -19v-187l642 -484q40 -26 40 -71v-10l-1 -197q0 -75 -54.5 -132t-121.5 -57h-453q-90 0 -156.5 68.5t-66.5 150.5z" />
<glyph unicode="t" d="M205 1100v227h848v-229q0 -35 -25 -59.5t-59 -24.5q-35 0 -60.5 25t-25.5 59v61h-170v-1075q0 -35 -25 -59.5t-59 -24.5q-36 0 -61 24.5t-25 59.5v1075h-170v-59q0 -35 -24.5 -59.5t-59.5 -24.5t-59.5 24.5t-24.5 59.5z" />
<glyph unicode="u" d="M205 302v941q0 35 25 60.5t59 25.5t59 -25t25 -59v-943q0 -33 46 -82.5t80 -49.5h250q35 0 85.5 49t50.5 83v941q0 36 24.5 61t59.5 25t59.5 -25t24.5 -61v-939q0 -104 -74.5 -204t-229.5 -100h-250q-146 0 -220 99t-74 203z" />
<glyph unicode="v" d="M209 934v309q0 36 24.5 61t59.5 25t59.5 -25t24.5 -61v-274l256 -652l256 650v276q0 36 24.5 61t59.5 25t59.5 -25t24.5 -61v-309l-342 -871q-26 -63 -82 -63q-59 0 -84 63z" />
<glyph unicode="w" d="M203 1245q0 34 24.5 59t59.5 25t59.5 -24.5t24.5 -59.5l44 -958q130 820 154.5 845t59.5 25q34 0 59 -25t141 -853l54 966q0 34 25 59t59 25q35 0 60.5 -24.5t25.5 -59.5l-104 -1176q0 -69 -63 -69h-78q-46 0 -63 50l-118 650l-128 -650q-20 -50 -63 -50h-93 q-60 0 -60 67z" />
<glyph unicode="x" d="M219 84q0 24 15 49l313 531l-307 528q-18 31 -18 57q0 32 25 56.5t58 24.5q49 0 72 -40l271 -456l266 454q25 41 71 41q35 0 61 -24t26 -58q0 -23 -13 -45l-315 -536l313 -539q12 -20 12 -43q0 -36 -24.5 -60t-59.5 -24q-49 0 -73 41l-268 457l-267 -457q-23 -40 -71 -40 q-36 0 -61.5 26t-25.5 57z" />
<glyph unicode="y" d="M209 1065v178q0 36 24.5 61t59.5 25t60.5 -25.5t25.5 -60.5v-115l252 -325l256 323v117q0 35 25 60.5t59 25.5q33 0 58.5 -23.5t25.5 -62.5v-176l-338 -430v-553q0 -35 -25 -59.5t-59 -24.5q-36 0 -61 24.5t-25 59.5v553z" />
<glyph unicode="z" d="M205 0v111l616 1048h-534q-34 0 -58 25.5t-24 60.5q0 34 24 59t58 25h766v-108l-617 -1053h533q35 0 59.5 -24.5t24.5 -59.5q0 -34 -25 -59t-59 -25h-764zM208 1100v143q0 35 24 59.5t60 24.5q35 0 59 -24.5t24 -59.5v-143q0 -35 -24 -59.5t-59 -24.5q-36 0 -60 24.5 t-24 59.5zM885 86v143q0 35 24 59.5t60 24.5q35 0 59 -24.5t24 -59.5v-143q0 -35 -24 -59.5t-59 -24.5q-36 0 -60 24.5t-24 59.5z" />
<glyph unicode="{" d="M209 666q0 35 24.5 59.5t59.5 24.5h168q34 0 60 27t26 63v323q0 65 50 115.5t118 50.5h256q35 0 59.5 -24.5t24.5 -59.5t-24.5 -59.5t-59.5 -24.5h-256v-327q0 -104 -68 -168q68 -62 68 -168v-328h256q35 0 59.5 -24.5t24.5 -59.5q0 -34 -25 -59t-59 -25h-256 q-69 0 -118.5 51t-49.5 117v322q0 35 -26 62.5t-60 27.5h-168q-35 0 -59.5 24t-24.5 60z" />
<glyph unicode="|" d="M535 86v1161q0 35 25 58.5t61 23.5q34 0 59 -23.5t25 -58.5v-1161q0 -35 -25.5 -60.5t-61.5 -25.5q-34 0 -58.5 25.5t-24.5 60.5z" />
<glyph unicode="}" d="M209 86q0 35 24.5 59.5t59.5 24.5h256v328q0 103 67 168q-67 61 -67 165v330h-256q-35 0 -59.5 24.5t-24.5 59.5q0 34 24.5 59t59.5 25h256q68 0 118 -51t50 -117v-323q0 -35 25.5 -61.5t60.5 -26.5h168q35 0 59.5 -24.5t24.5 -59.5q0 -36 -24.5 -61t-59.5 -25h-168 q-36 0 -61 -26.5t-25 -61.5v-324q0 -64 -50.5 -115t-117.5 -51h-256q-35 0 -59.5 24.5t-24.5 59.5z" />
<glyph unicode="~" d="M246 590q0 44 41 69l151 93q19 12 45 12h54q14 0 26 -4l262 -88h15l131 80q23 14 46 14q35 0 60 -27t25 -62q0 -44 -41 -69l-152 -92q-28 -14 -45 -14h-53q-8 0 -27 6l-256 86h-24l-127 -78q-23 -14 -47 -14q-34 0 -59 27t-25 61z" />
<glyph unicode="&#xa0;" />
<glyph unicode="&#xa1;" />
<glyph unicode="&#xa2;" />
<glyph unicode="&#xa3;" d="M199 86q0 35 24 59.5t60 24.5h106l123 414h-227q-35 0 -59.5 25t-24.5 61q0 34 24.5 59t59.5 25h276l113 376q60 201 270 201q109 0 109 -84q0 -34 -24.5 -60t-59.5 -26h-43q-67 0 -88 -71l-101 -338h226q35 0 60.5 -24.5t25.5 -59.5q0 -34 -25.5 -59t-58.5 -25h-277 l-121 -414h396q35 0 60.5 -24.5t25.5 -59.5q0 -34 -25.5 -59t-60.5 -25h-680q-34 0 -59 25t-25 59z" />
<glyph unicode="&#xa5;" />
<glyph unicode="&#xa6;" />
<glyph unicode="&#xa7;" />
<glyph unicode="&#xa8;" />
<glyph unicode="&#xa9;" d="M170 303v723q0 106 99.5 204.5t228.5 98.5h241q129 0 228.5 -98.5t99.5 -204.5v-723q0 -106 -99.5 -204.5t-228.5 -98.5h-241q-129 0 -228.5 98.5t-99.5 204.5zM256 307q0 -79 46.5 -127.5t76.5 -71t123 -22.5h233q101 0 135 29.5t72.5 73.5t38.5 118v715q0 80 -46.5 128 t-76.5 70.5t-123 22.5h-233q-101 0 -135 -29.5t-72.5 -73.5t-38.5 -118v-715zM340 666q0 73 27 122l96 179q21 43 72 74.5t100 31.5h162q38 0 61 -21.5t23 -53.5q0 -31 -23 -52.5t-61 -21.5h-168q-15 0 -35 -37l-98 -182q-7 -10 -7 -39q0 -26 11 -45l94 -179q19 -34 35 -34 h166q38 0 61 -22t23 -53q0 -32 -23 -53.5t-61 -21.5h-154q-47 0 -100.5 30.5t-77.5 76.5l-98 186q-25 69 -25 115z" />
<glyph unicode="&#xaa;" />
<glyph unicode="&#xab;" />
<glyph unicode="&#xac;" />
<glyph unicode="&#xad;" d="M207 596v74q0 35 24.5 59.5t59.5 24.5h678q32 0 58 -23.5t26 -60.5v-74q0 -35 -24.5 -60.5t-59.5 -25.5h-678q-35 0 -59.5 25.5t-24.5 60.5z" />
<glyph unicode="&#xae;" d="M170 303v723q0 106 99.5 204.5t228.5 98.5h241q129 0 228.5 -98.5t99.5 -204.5v-723q0 -106 -99.5 -204.5t-228.5 -98.5h-241q-129 0 -228.5 98.5t-99.5 204.5zM256 307q0 -79 46.5 -127.5t76.5 -71t123 -22.5h233q101 0 135 29.5t72.5 73.5t38.5 118v715q0 80 -46.5 128 t-76.5 70.5t-123 22.5h-233q-101 0 -135 -29.5t-72.5 -73.5t-38.5 -118v-715zM367 330v743h286q104 0 178 -75t74 -179q0 -198 -180 -241l135 -187q23 -31 23 -67q0 -29 -19.5 -48.5t-48.5 -19.5q-39 0 -72 45l-190 266h-37v-237q0 -32 -21.5 -53t-54.5 -21q-32 0 -52.5 21 t-20.5 53zM514 715h139q105 0 105 104q0 48 -29.5 77.5t-75.5 29.5h-139v-211z" />
<glyph unicode="&#xaf;" />
<glyph unicode="&#xb0;" />
<glyph unicode="&#xb1;" />
<glyph unicode="&#xb2;" />
<glyph unicode="&#xb3;" />
<glyph unicode="&#xb4;" />
<glyph unicode="&#xb5;" />
<glyph unicode="&#xb6;" />
<glyph unicode="&#xb7;" />
<glyph unicode="&#xb8;" />
<glyph unicode="&#xb9;" />
<glyph unicode="&#xba;" />
<glyph unicode="&#xbb;" />
<glyph unicode="&#xbc;" />
<glyph unicode="&#xbd;" />
<glyph unicode="&#xbe;" />
<glyph unicode="&#xbf;" />
<glyph unicode="&#xc0;" />
<glyph unicode="&#xc1;" />
<glyph unicode="&#xc2;" />
<glyph unicode="&#xc3;" />
<glyph unicode="&#xc4;" />
<glyph unicode="&#xc5;" />
<glyph unicode="&#xc6;" />
<glyph unicode="&#xc7;" />
<glyph unicode="&#xc8;" />
<glyph unicode="&#xc9;" />
<glyph unicode="&#xca;" />
<glyph unicode="&#xcb;" />
<glyph unicode="&#xcc;" />
<glyph unicode="&#xcd;" />
<glyph unicode="&#xce;" />
<glyph unicode="&#xcf;" />
<glyph unicode="&#xd0;" />
<glyph unicode="&#xd1;" />
<glyph unicode="&#xd2;" />
<glyph unicode="&#xd3;" />
<glyph unicode="&#xd4;" />
<glyph unicode="&#xd5;" />
<glyph unicode="&#xd6;" />
<glyph unicode="&#xd7;" />
<glyph unicode="&#xd8;" />
<glyph unicode="&#xd9;" />
<glyph unicode="&#xda;" />
<glyph unicode="&#xdb;" />
<glyph unicode="&#xdc;" />
<glyph unicode="&#xdd;" />
<glyph unicode="&#xde;" />
<glyph unicode="&#xdf;" />
<glyph unicode="&#xe0;" />
<glyph unicode="&#xe1;" />
<glyph unicode="&#xe2;" />
<glyph unicode="&#xe3;" />
<glyph unicode="&#xe4;" />
<glyph unicode="&#xe5;" />
<glyph unicode="&#xe6;" />
<glyph unicode="&#xe7;" />
<glyph unicode="&#xe8;" />
<glyph unicode="&#xe9;" />
<glyph unicode="&#xea;" />
<glyph unicode="&#xeb;" />
<glyph unicode="&#xec;" />
<glyph unicode="&#xed;" />
<glyph unicode="&#xee;" />
<glyph unicode="&#xef;" />
<glyph unicode="&#xf0;" />
<glyph unicode="&#xf1;" />
<glyph unicode="&#xf2;" />
<glyph unicode="&#xf3;" />
<glyph unicode="&#xf4;" />
<glyph unicode="&#xf5;" />
<glyph unicode="&#xf6;" />
<glyph unicode="&#xf7;" />
<glyph unicode="&#xf8;" />
<glyph unicode="&#xf9;" />
<glyph unicode="&#xfa;" />
<glyph unicode="&#xfb;" />
<glyph unicode="&#xfc;" />
<glyph unicode="&#xfd;" />
<glyph unicode="&#xfe;" />
<glyph unicode="&#xff;" />
<glyph unicode="&#x152;" />
<glyph unicode="&#x153;" />
<glyph unicode="&#x178;" />
<glyph unicode="&#x2c6;" />
<glyph unicode="&#x2dc;" />
<glyph unicode="&#x2000;" horiz-adv-x="682" />
<glyph unicode="&#x2001;" horiz-adv-x="1365" />
<glyph unicode="&#x2002;" horiz-adv-x="682" />
<glyph unicode="&#x2003;" horiz-adv-x="1365" />
<glyph unicode="&#x2004;" horiz-adv-x="455" />
<glyph unicode="&#x2005;" horiz-adv-x="341" />
<glyph unicode="&#x2006;" horiz-adv-x="227" />
<glyph unicode="&#x2007;" horiz-adv-x="227" />
<glyph unicode="&#x2008;" horiz-adv-x="170" />
<glyph unicode="&#x2009;" horiz-adv-x="273" />
<glyph unicode="&#x200a;" horiz-adv-x="75" />
<glyph unicode="&#x2010;" d="M207 596v74q0 35 24.5 59.5t59.5 24.5h678q32 0 58 -23.5t26 -60.5v-74q0 -35 -24.5 -60.5t-59.5 -25.5h-678q-35 0 -59.5 25.5t-24.5 60.5z" />
<glyph unicode="&#x2011;" d="M207 596v74q0 35 24.5 59.5t59.5 24.5h678q32 0 58 -23.5t26 -60.5v-74q0 -35 -24.5 -60.5t-59.5 -25.5h-678q-35 0 -59.5 25.5t-24.5 60.5z" />
<glyph unicode="&#x2012;" d="M207 596v74q0 35 24.5 59.5t59.5 24.5h678q32 0 58 -23.5t26 -60.5v-74q0 -35 -24.5 -60.5t-59.5 -25.5h-678q-35 0 -59.5 25.5t-24.5 60.5z" />
<glyph unicode="&#x2013;" />
<glyph unicode="&#x2014;" />
<glyph unicode="&#x2018;" />
<glyph unicode="&#x2019;" />
<glyph unicode="&#x201a;" />
<glyph unicode="&#x201c;" />
<glyph unicode="&#x201d;" />
<glyph unicode="&#x201e;" />
<glyph unicode="&#x2022;" d="M281 498v295q0 69 50 120.5t118 51.5h339q71 0 122 -51t51 -121v-291q0 -70 -50.5 -121t-117.5 -51h-349q-66 0 -114.5 50t-48.5 118z" />
<glyph unicode="&#x2026;" />
<glyph unicode="&#x202f;" horiz-adv-x="273" />
<glyph unicode="&#x2039;" />
<glyph unicode="&#x203a;" />
<glyph unicode="&#x205f;" horiz-adv-x="341" />
<glyph unicode="&#x20ac;" />
<glyph unicode="&#x2122;" d="M92 1257q0 31 19.5 51.5t52.5 20.5h410q33 0 52.5 -20.5t19.5 -51.5q0 -30 -19.5 -50.5t-52.5 -20.5h-133v-398q0 -32 -21 -52t-51 -20t-51 20t-21 52v398h-133q-33 0 -52.5 20.5t-19.5 50.5zM695 788v461q0 80 58 80q27 0 56 -22l162 -121l162 121q30 22 57 22 q58 0 58 -80v-461q0 -32 -21 -52t-51 -20t-51 20t-21 52v318l-90 -68q-20 -15 -43 -15q-22 0 -43 15l-90 68v-318q0 -32 -21 -52t-51 -20t-50.5 20t-20.5 52z" />
<glyph unicode="&#x25fc;" horiz-adv-x="1330" d="M0 0v1330h1330v-1330h-1330z" />
<glyph unicode="&#xfb01;" />
<glyph unicode="&#xfb02;" />
</font>
</defs>
</svg>
